<svg xmlns="http://www.w3.org/2000/svg" viewBox="0 0 400 400" width="400" height="400"><rect width="400" height="400" fill="#FFF4E6"/><circle cx="20.0" cy="20.0" r="16.0" fill="#FF8A3D"/><circle cx="20.0" cy="60.0" r="16.0" fill="#5A3A26"/><circle cx="20.0" cy="100.0" r="16.0" fill="#FFC79A"/><circle cx="20.0" cy="140.0" r="16.0" fill="#6B4A33"/><circle cx="20.0" cy="180.0" r="16.0" fill="#FFD4B0"/><circle cx="20.0" cy="220.0" r="16.0" fill="#F26430"/><circle cx="20.0" cy="260.0" r="16.0" fill="#3A2516"/><circle cx="20.0" cy="300.0" r="16.0" fill="#FFE6CC"/><circle cx="20.0" cy="340.0" r="16.0" fill="#FF8A3D"/><circle cx="20.0" cy="380.0" r="16.0" fill="#5A3A26"/><circle cx="60.0" cy="20.0" r="16.0" fill="#6B4A33"/><circle cx="60.0" cy="60.0" r="16.0" fill="#FFD4B0"/><circle cx="60.0" cy="100.0" r="16.0" fill="#F26430"/><circle cx="60.0" cy="140.0" r="16.0" fill="#3A2516"/><circle cx="60.0" cy="180.0" r="16.0" fill="#FFE6CC"/><circle cx="60.0" cy="220.0" r="16.0" fill="#FF8A3D"/><circle cx="60.0" cy="260.0" r="16.0" fill="#5A3A26"/><circle cx="60.0" cy="300.0" r="16.0" fill="#FFC79A"/><circle cx="60.0" cy="340.0" r="16.0" fill="#6B4A33"/><circle cx="60.0" cy="380.0" r="16.0" fill="#FFD4B0"/><circle cx="100.0" cy="20.0" r="16.0" fill="#3A2516"/><circle cx="100.0" cy="60.0" r="16.0" fill="#FFE6CC"/><circle cx="100.0" cy="100.0" r="16.0" fill="#FF8A3D"/><circle cx="100.0" cy="140.0" r="16.0" fill="#5A3A26"/><circle cx="100.0" cy="180.0" r="16.0" fill="#FFC79A"/><circle cx="100.0" cy="220.0" r="16.0" fill="#6B4A33"/><circle cx="100.0" cy="260.0" r="16.0" fill="#FFD4B0"/><circle cx="100.0" cy="300.0" r="16.0" fill="#F26430"/><circle cx="100.0" cy="340.0" r="16.0" fill="#3A2516"/><circle cx="100.0" cy="380.0" r="16.0" fill="#FFE6CC"/><circle cx="140.0" cy="20.0" r="16.0" fill="#5A3A26"/><circle cx="140.0" cy="60.0" r="16.0" fill="#FFC79A"/><circle cx="140.0" cy="100.0" r="16.0" fill="#6B4A33"/><circle cx="140.0" cy="140.0" r="16.0" fill="#FFD4B0"/><circle cx="140.0" cy="180.0" r="16.0" fill="#F26430"/><circle cx="140.0" cy="220.0" r="16.0" fill="#3A2516"/><circle cx="140.0" cy="260.0" r="16.0" fill="#FFE6CC"/><circle cx="140.0" cy="300.0" r="16.0" fill="#FF8A3D"/><circle cx="140.0" cy="340.0" r="16.0" fill="#5A3A26"/><circle cx="140.0" cy="380.0" r="16.0" fill="#FFC79A"/><circle cx="180.0" cy="20.0" r="16.0" fill="#FFD4B0"/><circle cx="180.0" cy="60.0" r="16.0" fill="#F26430"/><circle cx="180.0" cy="100.0" r="16.0" fill="#3A2516"/><circle cx="180.0" cy="140.0" r="16.0" fill="#FFE6CC"/><circle cx="180.0" cy="180.0" r="16.0" fill="#FF8A3D"/><circle cx="180.0" cy="220.0" r="16.0" fill="#5A3A26"/><circle cx="180.0" cy="260.0" r="16.0" fill="#FFC79A"/><circle cx="180.0" cy="300.0" r="16.0" fill="#6B4A33"/><circle cx="180.0" cy="340.0" r="16.0" fill="#FFD4B0"/><circle cx="180.0" cy="380.0" r="16.0" fill="#F26430"/><circle cx="220.0" cy="20.0" r="16.0" fill="#FFE6CC"/><circle cx="220.0" cy="60.0" r="16.0" fill="#FF8A3D"/><circle cx="220.0" cy="100.0" r="16.0" fill="#5A3A26"/><circle cx="220.0" cy="140.0" r="16.0" fill="#FFC79A"/><circle cx="220.0" cy="180.0" r="16.0" fill="#6B4A33"/><circle cx="220.0" cy="220.0" r="16.0" fill="#FFD4B0"/><circle cx="220.0" cy="260.0" r="16.0" fill="#F26430"/><circle cx="220.0" cy="300.0" r="16.0" fill="#3A2516"/><circle cx="220.0" cy="340.0" r="16.0" fill="#FFE6CC"/><circle cx="220.0" cy="380.0" r="16.0" fill="#FF8A3D"/><circle cx="260.0" cy="20.0" r="16.0" fill="#FFC79A"/><circle cx="260.0" cy="60.0" r="16.0" fill="#6B4A33"/><circle cx="260.0" cy="100.0" r="16.0" fill="#FFD4B0"/><circle cx="260.0" cy="140.0" r="16.0" fill="#F26430"/><circle cx="260.0" cy="180.0" r="16.0" fill="#3A2516"/><circle cx="260.0" cy="220.0" r="16.0" fill="#FFE6CC"/><circle cx="260.0" cy="260.0" r="16.0" fill="#FF8A3D"/><circle cx="260.0" cy="300.0" r="16.0" fill="#5A3A26"/><circle cx="260.0" cy="340.0" r="16.0" fill="#FFC79A"/><circle cx="260.0" cy="380.0" r="16.0" fill="#6B4A33"/><circle cx="300.0" cy="20.0" r="16.0" fill="#F26430"/><circle cx="300.0" cy="60.0" r="16.0" fill="#3A2516"/><circle cx="300.0" cy="100.0" r="16.0" fill="#FFE6CC"/><circle cx="300.0" cy="140.0" r="16.0" fill="#FF8A3D"/><circle cx="300.0" cy="180.0" r="16.0" fill="#5A3A26"/><circle cx="300.0" cy="220.0" r="16.0" fill="#FFC79A"/><circle cx="300.0" cy="260.0" r="16.0" fill="#6B4A33"/><circle cx="300.0" cy="300.0" r="16.0" fill="#FFD4B0"/><circle cx="300.0" cy="340.0" r="16.0" fill="#F26430"/><circle cx="300.0" cy="380.0" r="16.0" fill="#3A2516"/><circle cx="340.0" cy="20.0" r="16.0" fill="#FF8A3D"/><circle cx="340.0" cy="60.0" r="16.0" fill="#5A3A26"/><circle cx="340.0" cy="100.0" r="16.0" fill="#FFC79A"/><circle cx="340.0" cy="140.0" r="16.0" fill="#6B4A33"/><circle cx="340.0" cy="180.0" r="16.0" fill="#FFD4B0"/><circle cx="340.0" cy="220.0" r="16.0" fill="#F26430"/><circle cx="340.0" cy="260.0" r="16.0" fill="#3A2516"/><circle cx="340.0" cy="300.0" r="16.0" fill="#FFE6CC"/><circle cx="340.0" cy="340.0" r="16.0" fill="#FF8A3D"/><circle cx="340.0" cy="380.0" r="16.0" fill="#5A3A26"/><circle cx="380.0" cy="20.0" r="16.0" fill="#6B4A33"/><circle cx="380.0" cy="60.0" r="16.0" fill="#FFD4B0"/><circle cx="380.0" cy="100.0" r="16.0" fill="#F26430"/><circle cx="380.0" cy="140.0" r="16.0" fill="#3A2516"/><circle cx="380.0" cy="180.0" r="16.0" fill="#FFE6CC"/><circle cx="380.0" cy="220.0" r="16.0" fill="#FF8A3D"/><circle cx="380.0" cy="260.0" r="16.0" fill="#5A3A26"/><circle cx="380.0" cy="300.0" r="16.0" fill="#FFC79A"/><circle cx="380.0" cy="340.0" r="16.0" fill="#6B4A33"/><circle cx="380.0" cy="380.0" r="16.0" fill="#FFD4B0"/></svg>