<svg xmlns="http://www.w3.org/2000/svg" viewBox="0 0 400 200" width="400" height="200"><rect width="400" height="200" fill="#FFE6CC"/><circle cx="20" cy="40" r="12" fill="#F26430" opacity="0.7"/><circle cx="60" cy="70" r="16" fill="#F26430" opacity="0.7"/><circle cx="100" cy="100" r="20" fill="#F26430" opacity="0.7"/><circle cx="140" cy="130" r="12" fill="#F26430" opacity="0.7"/><circle cx="180" cy="40" r="16" fill="#F26430" opacity="0.7"/><circle cx="220" cy="70" r="20" fill="#F26430" opacity="0.7"/><circle cx="260" cy="100" r="12" fill="#F26430" opacity="0.7"/><circle cx="300" cy="130" r="16" fill="#F26430" opacity="0.7"/><circle cx="340" cy="40" r="20" fill="#F26430" opacity="0.7"/><circle cx="380" cy="70" r="12" fill="#F26430" opacity="0.7"/><rect x="30" y="120" width="20" height="40" fill="#FFC79A"/><rect x="65" y="120" width="20" height="40" fill="#FFC79A"/><rect x="100" y="120" width="20" height="40" fill="#FFC79A"/><rect x="135" y="120" width="20" height="40" fill="#FFC79A"/><rect x="170" y="120" width="20" height="40" fill="#FFC79A"/><rect x="205" y="120" width="20" height="40" fill="#FFC79A"/><rect x="240" y="120" width="20" height="40" fill="#FFC79A"/><rect x="275" y="120" width="20" height="40" fill="#FFC79A"/><rect x="310" y="120" width="20" height="40" fill="#FFC79A"/><rect x="345" y="120" width="20" height="40" fill="#FFC79A"/></svg>